<svg width="26" height="24" viewBox="0 0 26 24" fill="none" xmlns="http://www.w3.org/2000/svg">
<path d="M11.0166 23.0224C11.0131 23.0224 11.009 23.0224 11.0055 23.0224C10.8602 23.0195 10.7231 22.9574 10.6246 22.8508L0.578144 11.9265C0.405879 11.739 0.390058 11.4566 0.540644 11.251C0.69123 11.0459 0.965449 10.9756 1.19631 11.0834L10.3914 15.3888C10.4688 15.4252 10.5602 15.4076 10.6194 15.3461L24.6455 0.686502C24.8354 0.48787 25.1459 0.46619 25.3615 0.637284C25.5772 0.808377 25.627 1.11541 25.4764 1.34568L11.524 22.7195C11.5041 22.7506 11.4807 22.7787 11.4549 22.8051L11.3934 22.8666C11.2932 22.9662 11.1572 23.0224 11.0166 23.0224Z" fill="white"/>
</svg>
