<svg width="98" height="98" viewBox="0 0 98 98" fill="none" xmlns="http://www.w3.org/2000/svg">
<path d="M26.0318 42.8764C25.4711 42.8757 24.9549 43.1814 24.686 43.6734L6.31248 77.3579C5.75303 78.3795 6.49358 79.6269 7.65831 79.6249H41.3428V88.8139H35.2223C34.3754 88.8131 33.6887 89.4998 33.6896 90.3466C33.6927 91.1906 34.3783 91.8727 35.2223 91.8719H42.8741H55.127H62.7788C63.6228 91.8727 64.3083 91.1906 64.3116 90.3466C64.3124 89.4998 63.6257 88.8131 62.7788 88.8139H56.6583V79.625H90.3428C91.5075 79.627 92.2481 78.3796 91.6886 77.358L73.3151 43.6735C73.0463 43.1815 72.53 42.8758 71.9693 42.8765C56.6539 42.8743 41.3461 42.8764 26.0318 42.8764ZM26.9401 45.9345H39.4249L38.0327 52.061H23.5995L26.9401 45.9345ZM42.5696 45.9345H55.4342L56.8264 52.061H41.1775L42.5696 45.9345ZM58.5745 45.9345H71.0578L74.3984 52.061H59.9667L58.5745 45.9345ZM21.9292 55.125H37.3359L35.5953 62.7827H17.7526L21.9292 55.125ZM40.4806 55.125H57.5218L59.2623 62.7827H38.74L40.4806 55.125ZM60.6635 55.125H76.0687L80.2453 62.7827H62.4041L60.6635 55.125ZM16.0838 65.8452H34.8984L32.4625 76.561H10.2399L16.0838 65.8452ZM38.0432 65.8452H59.9592L62.3937 76.561H35.6072L38.0432 65.8452ZM63.101 65.8452H81.9156L87.7595 76.561H65.5369L63.101 65.8452ZM44.4044 79.625H53.5949V88.814H44.4044V79.625Z" fill="#ED1B23"/>
<path d="M48.9999 15.3135C44.7896 15.3135 41.3418 18.7557 41.3418 22.966C41.3418 27.1762 44.7896 30.6241 48.9999 30.6241C53.2102 30.6241 56.658 27.1762 56.658 22.966C56.658 18.7557 53.2102 15.3135 48.9999 15.3135ZM48.9999 18.3767C51.5551 18.3767 53.5948 20.4108 53.5948 22.966C53.5948 25.5212 51.5551 27.5608 48.9999 27.5608C46.4447 27.5608 44.405 25.5212 44.405 22.966C44.405 20.4108 46.4447 18.3767 48.9999 18.3767Z" fill="#ED1B23"/>
<path d="M48.9994 6.12378C48.1534 6.12356 47.4676 6.80942 47.4678 7.65541V10.7187C47.4676 11.5646 48.1534 12.2505 48.9994 12.2503C49.8454 12.2505 50.5313 11.5646 50.531 10.7187V7.65541C50.5313 6.80942 49.8454 6.12356 48.9994 6.12378Z" fill="#ED1B23"/>
<path d="M48.9994 33.6875C48.1534 33.6873 47.4676 34.3731 47.4678 35.2191V38.2824C47.4676 39.1284 48.1534 39.8142 48.9994 39.814C49.8454 39.8142 50.5313 39.1284 50.531 38.2824V35.2191C50.5313 34.3731 49.8454 33.6873 48.9994 33.6875Z" fill="#ED1B23"/>
<path d="M61.2467 21.4399C60.4051 21.4428 59.7236 22.1243 59.7207 22.9659C59.7205 23.8097 60.4029 24.4946 61.2467 24.4975H64.3099C65.1559 24.4977 65.8418 23.8119 65.8415 22.9659C65.8387 22.1222 65.1537 21.4397 64.3099 21.4399H61.2467Z" fill="#ED1B23"/>
<path d="M33.6888 21.4399C32.8451 21.4397 32.1601 22.1222 32.1572 22.9659C32.157 23.8119 32.8429 24.4977 33.6888 24.4975H36.7521C37.5959 24.4946 38.2783 23.8097 38.2781 22.9659C38.2752 22.1243 37.5937 21.4428 36.7521 21.4399H33.6888Z" fill="#ED1B23"/>
<path d="M56.5789 30.5506C55.9815 31.1485 55.9815 32.1173 56.5789 32.7152L58.7435 34.8798C59.3414 35.4772 60.3103 35.4772 60.9081 34.8798C61.5055 34.282 61.5055 33.3131 60.9081 32.7152L58.7435 30.5506C58.1457 29.9532 57.1768 29.9532 56.5789 30.5506Z" fill="#ED1B23"/>
<path d="M37.0916 11.0577C36.4942 11.6555 36.4942 12.6244 37.0916 13.2223L39.2562 15.3869C39.8541 15.9843 40.823 15.9843 41.4208 15.3869C42.0182 14.789 42.0182 13.8202 41.4208 13.2223L39.2562 11.0577C38.6583 10.4603 37.6895 10.4603 37.0916 11.0577Z" fill="#ED1B23"/>
<path d="M39.2562 30.5506L37.0916 32.7152C36.4942 33.3131 36.4942 34.282 37.0916 34.8798C37.6895 35.4772 38.6583 35.4772 39.2562 34.8798L41.4208 32.7152C42.0182 32.1173 42.0182 31.1485 41.4208 30.5506C40.823 29.9532 39.8541 29.9532 39.2562 30.5506Z" fill="#ED1B23"/>
<path d="M58.7435 11.0577L56.5789 13.2223C55.9815 13.8202 55.9815 14.789 56.5789 15.3869C57.1768 15.9843 58.1457 15.9843 58.7435 15.3869L60.9081 13.2223C61.5055 12.6244 61.5055 11.6555 60.9081 11.0577C60.3103 10.4603 59.3414 10.4603 58.7435 11.0577Z" fill="#ED1B23"/>
</svg>
