<svg width="90" height="90" viewBox="0 0 90 90" fill="none" xmlns="http://www.w3.org/2000/svg">
<path d="M70.3037 89H8.51172C7.95972 89 7.51172 88.552 7.51172 88V17.814C7.51172 17.262 7.95972 16.814 8.51172 16.814H70.3057C70.8577 16.814 71.3057 17.262 71.3057 17.814V88C71.3037 88.552 70.8557 89 70.3037 89ZM9.51172 87H69.3057V18.814H9.51172V87Z" fill="#ED1B23"/>
<path d="M26.2278 18.814H20.2158C19.6638 18.814 19.2158 18.366 19.2158 17.814V11.802C19.2158 11.25 19.6638 10.802 20.2158 10.802H26.2278C26.7798 10.802 27.2278 11.25 27.2278 11.802V17.814C27.2278 18.366 26.7798 18.814 26.2278 18.814ZM21.2158 16.814H25.2278V12.802H21.2158V16.814Z" fill="#ED1B23"/>
<path d="M37.4114 18.814H31.3994C30.8474 18.814 30.3994 18.366 30.3994 17.814V11.802C30.3994 11.25 30.8474 10.802 31.3994 10.802H37.4114C37.9634 10.802 38.4114 11.25 38.4114 11.802V17.814C38.4114 18.366 37.9634 18.814 37.4114 18.814ZM32.3994 16.814H36.4114V12.802H32.3994V16.814Z" fill="#ED1B23"/>
<path d="M58.5999 18.814H52.5879C52.0359 18.814 51.5879 18.366 51.5879 17.814V2C51.5879 1.448 52.0359 1 52.5879 1H58.5999C59.1519 1 59.5999 1.448 59.5999 2V17.814C59.5999 18.366 59.1519 18.814 58.5999 18.814ZM53.5879 16.814H57.5999V3H53.5879V16.814Z" fill="#ED1B23"/>
<path d="M34.4062 12.802C33.8543 12.802 33.4062 12.354 33.4062 11.802V2C33.4062 1.448 33.8543 1 34.4062 1C34.9583 1 35.4062 1.448 35.4062 2V11.802C35.4062 12.354 34.9583 12.802 34.4062 12.802Z" fill="#ED1B23"/>
<path d="M23.2217 12.802C22.6697 12.802 22.2217 12.354 22.2217 11.802V2C22.2217 1.448 22.6697 1 23.2217 1C23.7737 1 24.2217 1.448 24.2217 2V11.802C24.2217 12.354 23.7737 12.802 23.2217 12.802Z" fill="#ED1B23"/>
<path d="M81.4877 40.6141H70.3037C69.7517 40.6141 69.3037 40.1661 69.3037 39.6141V30.3601C69.3037 29.8081 69.7517 29.3601 70.3037 29.3601H81.4877C82.0397 29.3601 82.4877 29.8081 82.4877 30.3601V39.6141C82.4877 40.1681 82.0397 40.6141 81.4877 40.6141ZM71.3037 38.6141H80.4877V31.3601H71.3037V38.6141Z" fill="#ED1B23"/>
<path d="M81.4877 76.452H70.3037C69.7517 76.452 69.3037 76.004 69.3037 75.452V66.198C69.3037 65.646 69.7517 65.198 70.3037 65.198H81.4877C82.0397 65.198 82.4877 65.646 82.4877 66.198V75.452C82.4877 76.004 82.0397 76.452 81.4877 76.452ZM71.3037 74.452H80.4877V67.198H71.3037V74.452Z" fill="#ED1B23"/>
<path d="M17.2435 56.282H13.2695C12.7175 56.282 12.2695 55.834 12.2695 55.282C12.2695 54.73 12.7175 54.282 13.2695 54.282H17.2435C17.7955 54.282 18.2435 54.73 18.2435 55.282C18.2435 55.834 17.7975 56.282 17.2435 56.282Z" fill="#ED1B23"/>
<path d="M17.2435 75.0359H13.2695C12.7175 75.0359 12.2695 74.5879 12.2695 74.0359C12.2695 73.4839 12.7175 73.0359 13.2695 73.0359H17.2435C17.7955 73.0359 18.2435 73.4839 18.2435 74.0359C18.2435 74.5879 17.7975 75.0359 17.2435 75.0359Z" fill="#ED1B23"/>
<path d="M30.1016 33.1822H17.3096C16.7576 33.1822 16.3096 32.7342 16.3096 32.1822V26.0962C16.3096 25.5442 16.7576 25.0962 17.3096 25.0962H30.1016C30.6536 25.0962 31.1016 25.5442 31.1016 26.0962V32.1822C31.1016 32.7342 30.6536 33.1822 30.1016 33.1822ZM18.3096 31.1822H29.1016V27.0962H18.3096V31.1822Z" fill="#ED1B23"/>
<path d="M30.1016 43.6141H17.3096C16.7576 43.6141 16.3096 43.1661 16.3096 42.6141V36.5281C16.3096 35.9761 16.7576 35.5281 17.3096 35.5281H30.1016C30.6536 35.5281 31.1016 35.9761 31.1016 36.5281V42.6141C31.1016 43.1661 30.6536 43.6141 30.1016 43.6141ZM18.3096 41.6141H29.1016V37.5281H18.3096V41.6141Z" fill="#ED1B23"/>
<path d="M58.0593 44.018C55.6073 44.018 53.6133 42.024 53.6133 39.572C53.6133 37.12 55.6073 35.126 58.0593 35.126C60.5113 35.126 62.5053 37.12 62.5053 39.572C62.5053 42.024 60.5093 44.018 58.0593 44.018ZM58.0593 37.126C56.7113 37.126 55.6133 38.224 55.6133 39.572C55.6133 40.92 56.7113 42.018 58.0593 42.018C59.4073 42.018 60.5053 40.92 60.5053 39.572C60.5053 38.224 59.4073 37.126 58.0593 37.126Z" fill="#ED1B23"/>
<path d="M58.0593 33.5861C55.6073 33.5861 53.6133 31.5921 53.6133 29.1401C53.6133 26.6881 55.6073 24.6941 58.0593 24.6941C60.5113 24.6941 62.5053 26.6881 62.5053 29.1401C62.5053 31.5921 60.5093 33.5861 58.0593 33.5861ZM58.0593 26.6921C56.7113 26.6921 55.6133 27.7901 55.6133 29.1381C55.6133 30.4861 56.7113 31.5841 58.0593 31.5841C59.4073 31.5841 60.5053 30.4861 60.5053 29.1381C60.5053 27.7901 59.4073 26.6921 58.0593 26.6921Z" fill="#ED1B23"/>
<path d="M46.5798 30.1401H38.1338C37.5818 30.1401 37.1338 29.6921 37.1338 29.1401C37.1338 28.5881 37.5818 28.1401 38.1338 28.1401H46.5798C47.1318 28.1401 47.5798 28.5881 47.5798 29.1401C47.5798 29.6921 47.1318 30.1401 46.5798 30.1401Z" fill="#ED1B23"/>
<path d="M46.5798 40.572H38.1338C37.5818 40.572 37.1338 40.124 37.1338 39.572C37.1338 39.02 37.5818 38.572 38.1338 38.572H46.5798C47.1318 38.572 47.5798 39.02 47.5798 39.572C47.5798 40.124 47.1318 40.572 46.5798 40.572Z" fill="#ED1B23"/>
<path d="M61.5056 81.12H17.3096C16.7576 81.12 16.3096 80.672 16.3096 80.12V49.196C16.3096 48.644 16.7576 48.196 17.3096 48.196H61.5056C62.0576 48.196 62.5056 48.644 62.5056 49.196V80.12C62.5056 80.672 62.0576 81.12 61.5056 81.12ZM18.3096 79.12H60.5056V50.196H18.3096V79.12Z" fill="#ED1B23"/>
<path d="M39.8177 68.08C39.7957 68.08 39.7737 68.08 39.7517 68.078L32.5097 67.602C32.1557 67.578 31.8397 67.37 31.6817 67.052C31.5237 66.734 31.5437 66.356 31.7377 66.058L39.4797 54.178C39.7197 53.808 40.1737 53.64 40.5977 53.764C41.0217 53.886 41.3137 54.272 41.3177 54.712L41.3997 62.022C41.4057 62.574 40.9637 63.026 40.4117 63.034C40.4077 63.034 40.4037 63.034 40.3997 63.034C39.8517 63.034 39.4057 62.594 39.3997 62.046L39.3537 58.034L34.3457 65.718L39.8817 66.082C40.4337 66.118 40.8497 66.594 40.8137 67.146C40.7797 67.674 40.3417 68.08 39.8177 68.08Z" fill="#ED1B23"/>
<path d="M39.9496 75.5919C39.8636 75.5919 39.7776 75.5819 39.6916 75.5579C39.2596 75.4419 38.9576 75.0559 38.9496 74.6099L38.8175 67.0979C38.8075 66.5459 39.2476 66.0899 39.7996 66.0799H39.8176C40.3616 66.0799 40.8076 66.5159 40.8176 67.0619L40.8876 71.0779L45.5256 63.3299L40.3396 63.0319C39.7876 62.9999 39.3676 62.5279 39.3976 61.9759C39.4276 61.4239 39.9016 61.0059 40.4536 61.0359L47.2876 61.4279C47.6376 61.4479 47.9496 61.6499 48.1136 61.9579C48.2776 62.2659 48.2676 62.6399 48.0876 62.9399L40.8036 75.1059C40.6236 75.4139 40.2936 75.5919 39.9496 75.5919Z" fill="#ED1B23"/>
</svg>
