<svg width="76" height="76" viewBox="0 0 76 76" fill="none" xmlns="http://www.w3.org/2000/svg">
<path d="M65.3125 5.9375H10.6875C10.3726 5.9375 10.0705 6.06261 9.84781 6.28531C9.62511 6.50801 9.5 6.81006 9.5 7.125V59.375C9.5 59.6899 9.62511 59.992 9.84781 60.2147C10.0705 60.4374 10.3726 60.5625 10.6875 60.5625H65.3125C65.6274 60.5625 65.9295 60.4374 66.1522 60.2147C66.3749 59.992 66.5 59.6899 66.5 59.375V7.125C66.5 6.81006 66.3749 6.50801 66.1522 6.28531C65.9295 6.06261 65.6274 5.9375 65.3125 5.9375ZM39.1875 8.3125V58.1875H36.8125V8.3125H39.1875ZM11.875 8.3125H34.4375V58.1875H11.875V8.3125ZM64.125 58.1875H41.5625V8.3125H64.125V58.1875Z" fill="#ED1B23"/>
<path d="M4.75 2.375V64.125C4.75 64.4399 4.87511 64.742 5.09781 64.9647C5.32051 65.1874 5.62256 65.3125 5.9375 65.3125H70.0625C70.3774 65.3125 70.6795 65.1874 70.9022 64.9647C71.1249 64.742 71.25 64.4399 71.25 64.125V2.375C71.25 2.06006 71.1249 1.75801 70.9022 1.53531C70.6795 1.31261 70.3774 1.1875 70.0625 1.1875H5.9375C5.62256 1.1875 5.32051 1.31261 5.09781 1.53531C4.87511 1.75801 4.75 2.06006 4.75 2.375ZM7.125 3.5625H68.875V62.9375H7.125V3.5625Z" fill="#ED1B23"/>
<path d="M44.2783 32.4114L59.7137 16.976L61.3928 18.6551L45.9574 34.0905L44.2783 32.4114Z" fill="#ED1B23"/>
<path d="M44.3174 47.7932L59.7382 33.5279L61.3508 35.2712L45.93 49.5365L44.3174 47.7932Z" fill="#ED1B23"/>
<path d="M14.5947 32.4089L30.0301 16.9736L31.7092 18.6527L16.2739 34.0881L14.5947 32.4089Z" fill="#ED1B23"/>
<path d="M14.6416 47.8003L30.0624 33.535L31.675 35.2783L16.2542 49.5435L14.6416 47.8003Z" fill="#ED1B23"/>
<path d="M73.625 67.6875H2.375C2.06006 67.6875 1.75801 67.8126 1.53531 68.0353C1.31261 68.258 1.1875 68.5601 1.1875 68.875V73.625C1.1875 73.9399 1.31261 74.242 1.53531 74.4647C1.75801 74.6874 2.06006 74.8125 2.375 74.8125H73.625C73.9399 74.8125 74.242 74.6874 74.4647 74.4647C74.6874 74.242 74.8125 73.9399 74.8125 73.625V68.875C74.8125 68.5601 74.6874 68.258 74.4647 68.0353C74.242 67.8126 73.9399 67.6875 73.625 67.6875ZM72.4375 72.4375H3.5625V70.0625H72.4375V72.4375Z" fill="#ED1B23"/>
</svg>
