<svg width="98" height="98" viewBox="0 0 98 98" fill="none" xmlns="http://www.w3.org/2000/svg">
<path d="M31.3906 42.4309L48.2344 52.162C48.4687 52.292 48.7321 52.3604 49 52.361C49.2689 52.3605 49.533 52.2892 49.7656 52.1543L66.6094 42.4232C66.8419 42.2889 67.0351 42.0959 67.1695 41.8634C67.3038 41.6309 67.3747 41.3672 67.375 41.0987V21.6595C67.3761 21.3896 67.3058 21.1243 67.1714 20.8904C67.0369 20.6564 66.8431 20.4622 66.6094 20.3273L49.7656 10.6038C49.5328 10.4694 49.2688 10.3987 49 10.3987C48.7312 10.3987 48.4672 10.4694 48.2344 10.6038L31.3906 20.3426C31.1581 20.4768 30.9649 20.6699 30.8305 20.9024C30.6962 21.1349 30.6253 21.3986 30.625 21.6671V41.1063C30.6253 41.3749 30.6962 41.6386 30.8305 41.8711C30.9649 42.1035 31.1581 42.2966 31.3906 42.4309ZM33.6875 24.3162L47.4688 32.2634V48.1807L33.6875 40.2259V24.3162ZM50.5312 48.1807V32.2863L64.3125 24.6301V40.2182L50.5312 48.1807ZM49 13.7276L63.0722 21.8279L49 29.622L35.2188 21.6671L49 13.7276Z" fill="#ED1B23"/>
<path d="M88.0469 39.5827L72.7344 30.824C72.3811 30.6209 71.9616 30.5665 71.5681 30.6728C71.1747 30.779 70.8396 31.0372 70.6366 31.3905C70.4335 31.7439 70.3791 32.1634 70.4854 32.5568C70.5916 32.9502 70.8498 33.2853 71.2031 33.4883L84.5556 41.1446L49 61.2499L13.7813 40.9379L26.7969 33.4883C27.1502 33.2853 27.4084 32.9502 27.5146 32.5568C27.6209 32.1634 27.5665 31.7439 27.3635 31.3905C27.2629 31.2156 27.1289 31.0622 26.9691 30.939C26.8092 30.8159 26.6267 30.7254 26.4319 30.6728C26.0385 30.5665 25.619 30.6209 25.2656 30.824L9.95314 39.598C9.71946 39.7329 9.52558 39.9272 9.39113 40.1611C9.25669 40.3951 9.18644 40.6604 9.18751 40.9302V63.608C9.18644 63.8779 9.25669 64.1432 9.39113 64.3771C9.52558 64.611 9.71946 64.8053 9.95314 64.9402L48.2344 87.0438C48.4687 87.1738 48.7321 87.2423 49 87.2429C49.2689 87.2424 49.533 87.1711 49.7656 87.0362L88.0469 64.9173C88.2794 64.783 88.4726 64.5899 88.607 64.3575C88.7413 64.125 88.8122 63.8612 88.8125 63.5927V40.9149C88.8136 40.6451 88.7433 40.3798 88.6089 40.1458C88.4744 39.9119 88.2806 39.7176 88.0469 39.5827ZM12.25 43.5793L47.4688 63.899V83.0396L12.25 62.7276V43.5793ZM50.5313 83.0626V63.9219L85.75 44.0157V62.7123L50.5313 83.0626Z" fill="#ED1B23"/>
</svg>
