<svg width="86" height="86" viewBox="0 0 86 86" fill="none" xmlns="http://www.w3.org/2000/svg">
<path d="M83.3125 26.3277H77.3531L43.6935 1.7381C43.2805 1.43626 42.7195 1.43626 42.3065 1.7381L8.64686 26.3277H2.6875C2.03813 26.3277 1.51172 26.8541 1.51172 27.5035V32.9151C1.51172 33.5645 2.03813 34.0909 2.6875 34.0909H7.85472V56.9365H2.6875C2.03813 56.9365 1.51172 57.4629 1.51172 58.1123C1.51172 58.7616 2.03813 59.2881 2.6875 59.2881H7.85472V80.39C7.85472 82.6498 9.69331 84.4882 11.9532 84.4882H74.047C76.3069 84.4882 78.1453 82.6497 78.1453 80.39V59.2881H79.913L79.7237 59.4774C79.2645 59.9366 79.2645 60.681 79.7237 61.1401C79.9531 61.3697 80.2541 61.4844 80.555 61.4844C80.8558 61.4844 81.1568 61.3695 81.3862 61.1401L83.5811 58.9452C84.0403 58.486 84.0403 57.7416 83.5811 57.2825L81.3862 55.0877C80.9273 54.6286 80.1826 54.6286 79.7237 55.0877C79.2645 55.5469 79.2645 56.2913 79.7237 56.7504L79.9098 56.9365H78.1451V34.0909H83.3125C83.9619 34.0909 84.4883 33.5645 84.4883 32.9151V27.5035C84.4883 26.8541 83.9619 26.3277 83.3125 26.3277ZM43 4.14358L73.3669 26.3277H12.6331L43 4.14358ZM75.7937 56.9365H69.2412C68.5919 56.9365 68.0655 57.4629 68.0655 58.1123C68.0655 58.7616 68.5919 59.2881 69.2412 59.2881H75.7937V80.39C75.7937 81.3531 75.0101 82.1367 74.047 82.1367H11.9532C10.99 82.1367 10.2063 81.3531 10.2063 80.39V59.2881H13.3592L13.1699 59.4774C12.7107 59.9366 12.7107 60.681 13.1699 61.1401C13.3994 61.3697 13.7004 61.4844 14.0012 61.4844C14.302 61.4844 14.603 61.3695 14.8325 61.1401L17.0273 58.9452C17.4866 58.486 17.4866 57.7416 17.0273 57.2825L14.8325 55.0877C14.3736 54.6286 13.6288 54.6286 13.1699 55.0877C12.7107 55.5469 12.7107 56.2913 13.1699 56.7504L13.356 56.9365H10.2063V34.0909H75.7939V56.9365H75.7937ZM82.1367 31.7393H3.86328V28.6793H82.1367V31.7393ZM43 74.4293C51.9966 74.4293 59.3156 67.1102 59.3156 58.1138C59.3156 49.1174 51.9966 41.7983 43 41.7983C34.0036 41.7983 26.6845 49.1174 26.6845 58.1138C26.6845 67.1102 34.0036 74.4293 43 74.4293ZM43 44.1499C50.6999 44.1499 56.9641 50.4139 56.9641 58.1138C56.9641 65.8136 50.6999 72.0777 43 72.0777C35.3003 72.0777 29.0361 65.8135 29.0361 58.1138C29.0361 50.4141 35.3003 44.1499 43 44.1499ZM31.2946 59.2896H37.7501C36.6217 60.5512 35.9715 62.1971 35.9715 63.9665C35.9715 67.842 39.1245 70.9951 43.0002 70.9951C43.6495 70.9951 44.1759 70.4687 44.1759 69.8194V63.3638C45.4376 64.4921 47.0835 65.1423 48.853 65.1423C52.7286 65.1423 55.8817 61.9893 55.8817 58.1138C55.8817 57.4644 55.3553 56.938 54.7059 56.938H48.2504C49.3786 55.6764 50.0288 54.0305 50.0288 52.2609C50.0288 48.3854 46.8759 45.2324 43.0002 45.2324C42.3508 45.2324 41.8244 45.7588 41.8244 46.4082V52.8636C40.5628 51.7353 38.9168 51.0851 37.1473 51.0851C33.2719 51.0851 30.1188 54.2381 30.1188 58.1138C30.1188 58.7632 30.6451 59.2896 31.2946 59.2896ZM43 59.5874C42.1875 59.5874 41.5266 58.9263 41.5266 58.1138C41.5266 57.3013 42.1877 56.6404 43 56.6404C43.8126 56.6404 44.4736 57.3013 44.4736 58.1138C44.4736 58.9263 43.8126 59.5874 43 59.5874ZM38.3229 63.9667C38.3229 62.5735 38.9276 61.2949 39.9505 60.4198C40.4192 61.0378 41.0707 61.5093 41.8241 61.7532V68.4939C39.8125 67.9714 38.3229 66.1397 38.3229 63.9667ZM48.8529 62.7909C47.4597 62.7909 46.181 62.1862 45.306 61.1633C45.9242 60.6948 46.3955 60.0431 46.6395 59.2896H53.3803C52.8576 61.3013 51.0257 62.7909 48.8529 62.7909ZM47.6771 52.2611C47.6771 53.6542 47.0724 54.9328 46.0496 55.8079C45.581 55.19 44.9293 54.7185 44.1759 54.4744V47.7337C46.1875 48.2564 47.6771 50.0881 47.6771 52.2611ZM37.1471 53.4369C38.5403 53.4369 39.819 54.0415 40.694 55.0645C40.0758 55.5329 39.6045 56.1847 39.3606 56.9382H32.6199C33.1426 54.9264 34.9743 53.4369 37.1471 53.4369ZM53.2142 76.1357C53.5022 76.7177 53.2639 77.423 52.6821 77.7109C49.5921 79.2401 46.2791 79.9837 42.9953 79.9837C38.0649 79.9837 33.2005 78.3088 29.2501 75.1021V75.4171C29.2501 76.0665 28.7237 76.5929 28.0743 76.5929C27.4249 76.5929 26.8985 76.0665 26.8985 75.4171V72.313C26.8985 71.6637 27.4249 71.1372 28.0743 71.1372H31.1782C31.8276 71.1372 32.354 71.6637 32.354 72.313C32.354 72.9624 31.8276 73.4888 31.1782 73.4888H30.999C36.8498 78.0703 44.8473 78.9649 51.6388 75.6032C52.2206 75.3153 52.9261 75.5536 53.2142 76.1357ZM32.786 40.0919C32.4979 39.5099 32.7363 38.8046 33.3181 38.5167C41.0366 34.6963 50.1686 35.7872 56.7501 41.1261V40.8105C56.7501 40.1611 57.2765 39.6347 57.9259 39.6347C58.5752 39.6347 59.1017 40.1611 59.1017 40.8105V43.9146C59.1017 44.5639 58.5752 45.0903 57.9259 45.0903H54.8218C54.1724 45.0903 53.646 44.5639 53.646 43.9146C53.646 43.2652 54.1724 42.7388 54.8218 42.7388H55.0004C49.149 38.1613 41.1426 37.2675 34.3614 40.6242C33.7795 40.9123 33.0741 40.6739 32.786 40.0919ZM60.4897 49.4752C60.2017 48.8931 60.44 48.1878 61.0219 47.8999C61.6037 47.612 62.3092 47.8502 62.5972 48.4321C66.4152 56.1462 65.3247 65.2827 59.9877 71.8639H60.3035C60.9528 71.8639 61.4792 72.3903 61.4792 73.0397C61.4792 73.689 60.9528 74.2154 60.3035 74.2154H57.1996C56.5502 74.2154 56.0238 73.689 56.0238 73.0397V69.9356C56.0238 69.2862 56.5502 68.7598 57.1996 68.7598C57.8489 68.7598 58.3754 69.2862 58.3754 69.9356V70.1138C62.9515 64.2626 63.8446 56.2532 60.4897 49.4752ZM23.4029 67.7957C21.3366 63.621 20.6665 58.985 21.4647 54.3887C22.1104 50.6721 23.6676 47.2507 26.011 44.3639H25.6965C25.0472 44.3639 24.5207 43.8375 24.5207 43.1881C24.5207 42.5387 25.0472 42.0123 25.6965 42.0123H28.8006C29.45 42.0123 29.9764 42.5387 29.9764 43.1881V46.2921C29.9764 46.9415 29.45 47.4679 28.8006 47.4679C28.1512 47.4679 27.6248 46.9415 27.6248 46.2921V46.1114C23.0399 51.9626 22.1442 59.9517 25.5103 66.7526C25.7983 67.3346 25.56 68.0399 24.9781 68.3278C24.8105 68.4108 24.6325 68.4501 24.4573 68.4501C24.0246 68.4502 23.608 68.2101 23.4029 67.7957Z" fill="#ED1B23"/>
</svg>
