<svg width="102" height="102" viewBox="0 0 102 102" fill="none" xmlns="http://www.w3.org/2000/svg">
<path d="M98.8718 79.3129L78.8643 41.4893V22.1272C78.8643 21.4678 78.3284 20.9319 77.669 20.9319H63.7575C63.0981 20.9319 62.5622 21.4678 62.5622 22.1272V27.3507H57.518H44.3695H31.2211C30.7769 27.3507 30.3704 27.5958 30.1633 27.9882L23.4038 40.8199L16.6443 53.6516L9.88478 66.4832L3.12529 79.3129C2.83841 79.8568 3.01173 80.5302 3.52572 80.8688C3.72693 81.0023 3.95603 81.0661 4.18115 81.0661C4.53177 81.0661 4.87841 80.9127 5.11349 80.6218C6.75704 78.5838 8.69744 77.502 10.7255 77.4981C12.7316 77.4901 14.7557 78.6037 16.4032 80.6278L16.4072 80.6258C16.4829 80.7194 16.5686 80.8031 16.6742 80.8728C16.8754 81.0063 17.1045 81.07 17.3296 81.07C17.6802 81.07 18.0268 80.9166 18.2619 80.6258C19.9055 78.5878 21.8459 77.506 23.8739 77.502C25.892 77.4941 27.9061 78.6077 29.5517 80.6318L29.5556 80.6298C29.6313 80.7234 29.717 80.8071 29.8226 80.8768C30.0238 81.0103 30.2529 81.074 30.478 81.074C30.8286 81.074 31.1753 80.9206 31.4104 80.6298C33.0539 78.5918 34.9943 77.51 37.0224 77.506H37.0363C38.9189 77.506 40.8015 78.4802 42.3833 80.2612C42.4112 80.3429 42.4451 80.4226 42.4909 80.4963C42.7081 80.8549 43.0965 81.074 43.5149 81.074H97.816C98.2343 81.074 98.6228 80.8549 98.8399 80.4963C99.0571 80.1297 99.069 79.6835 98.8718 79.3129ZM64.9508 23.3225H76.4716V36.969L71.7203 27.9862C71.5131 27.5958 71.1067 27.3507 70.6644 27.3507C70.6644 27.3507 70.6644 27.3507 70.6624 27.3507H64.9508V23.3225ZM58.2372 29.7433H68.6802L63.6161 39.3178C61.7414 37.5627 59.554 36.6144 57.3148 36.6144C57.3088 36.6144 57.3008 36.6144 57.2949 36.6144C56.2808 36.6164 55.2788 36.8136 54.3126 37.1941L58.2372 29.7433ZM50.0592 64.9433C48.1945 63.2121 46.0191 62.2758 43.7958 62.2758C43.7898 62.2758 43.7819 62.2758 43.7759 62.2758C42.7619 62.2777 41.7598 62.475 40.7936 62.8555L44.9951 54.8808C46.6247 52.8945 48.5392 51.8427 50.5413 51.8367H50.5553C52.3463 51.8367 54.1372 52.7212 55.6692 54.3409L50.0592 64.9433ZM36.9666 64.9951C35.0879 63.23 32.8945 62.2758 30.6494 62.2758C30.6434 62.2758 30.6354 62.2758 30.6294 62.2758C29.6154 62.2777 28.6133 62.475 27.6471 62.8555L31.8486 54.8808C33.4783 52.8945 35.3927 51.8427 37.3949 51.8367H37.4088C39.2138 51.8367 41.0207 52.7352 42.5606 54.3807L36.9666 64.9951ZM38.6081 42.0471C40.2378 40.0609 42.1522 39.009 44.1524 39.003H44.1663C45.9713 39.003 47.7782 39.9015 49.3181 41.547L43.7261 52.1634C41.8474 50.3983 39.654 49.4441 37.4088 49.4441C37.4029 49.4441 37.3949 49.4441 37.3889 49.4441C36.3749 49.4461 35.3728 49.6433 34.4066 50.0238L38.6081 42.0471ZM56.8386 52.1295C54.968 50.3864 52.7865 49.4461 50.5553 49.4461C50.5493 49.4461 50.5413 49.4461 50.5354 49.4461C49.5213 49.4481 48.5193 49.6453 47.5531 50.0258L51.7546 42.0491C53.3842 40.0629 55.2987 39.011 57.2988 39.005H57.3128C59.1117 39.005 60.9087 39.8955 62.4447 41.5271L56.8386 52.1295ZM45.0887 29.7433H55.5358L50.4836 39.3337C48.6049 37.5686 46.4115 36.6144 44.1663 36.6144C44.1604 36.6144 44.1524 36.6144 44.1464 36.6144C43.1324 36.6164 42.1303 36.8136 41.1641 37.1941L45.0887 29.7433ZM31.9403 29.7433H42.3873L37.3351 39.3337C35.4565 37.5686 33.2631 36.6144 31.0179 36.6144C31.0119 36.6144 31.004 36.6144 30.998 36.6144C29.984 36.6164 28.9819 36.8136 28.0157 37.1941L31.9403 29.7433ZM25.4597 42.0471C27.0893 40.0609 29.0038 39.009 31.004 39.003H31.0179C32.8228 39.003 34.6297 39.9015 36.1697 41.547L30.5776 52.1634C28.699 50.3983 26.5056 49.4441 24.2604 49.4441C24.2544 49.4441 24.2465 49.4441 24.2405 49.4441C23.2265 49.4461 22.2244 49.6433 21.2582 50.0238L25.4597 42.0471ZM18.7002 54.8788C20.3298 52.8925 22.2443 51.8407 24.2445 51.8347H24.2584C26.0633 51.8347 27.8703 52.7332 29.4102 54.3787L23.8181 64.9951C21.9395 63.23 19.7461 62.2758 17.5009 62.2758C17.4949 62.2758 17.487 62.2758 17.481 62.2758C16.467 62.2777 15.4649 62.475 14.4987 62.8555L18.7002 54.8788ZM17.0586 77.8268C15.18 76.0617 12.9866 75.1074 10.7414 75.1074C10.7354 75.1074 10.7275 75.1074 10.7215 75.1074C9.70747 75.1094 8.7054 75.3067 7.73919 75.6872L11.9407 67.7104C13.5703 65.7242 15.4848 64.6724 17.485 64.6664H17.4989C19.3038 64.6664 21.1108 65.5648 22.6507 67.2104L17.0586 77.8268ZM30.2071 77.8268C28.3285 76.0617 26.1351 75.1074 23.8899 75.1074C23.8839 75.1074 23.8759 75.1074 23.8699 75.1074C22.8559 75.1094 21.8538 75.3067 20.8876 75.6872L25.0892 67.7104C26.7188 65.7242 28.6333 64.6724 30.6334 64.6664H30.6474C32.4523 64.6664 34.2592 65.5648 35.7992 67.2104L30.2071 77.8268ZM37.0383 75.1074C37.0323 75.1074 37.0244 75.1074 37.0184 75.1074C36.0044 75.1094 35.0023 75.3067 34.0361 75.6872L38.2376 67.7104C39.8672 65.7242 41.7817 64.6724 43.7819 64.6664H43.7958C45.5788 64.6664 47.3638 65.5429 48.8918 67.1506L43.2818 77.757C41.4191 76.0378 39.2536 75.1074 37.0383 75.1074ZM51.4 78.6774L70.6664 42.3698L89.9329 78.6774H51.4ZM92.6383 78.6774L71.7203 39.258C71.5131 38.8675 71.1067 38.6225 70.6644 38.6225C70.2222 38.6225 69.8158 38.8675 69.6086 39.258L48.6926 78.6774H45.4991L70.6644 31.104L95.8297 78.6774H92.6383Z" fill="#ED1B23"/>
</svg>
