<svg width="76" height="76" viewBox="0 0 76 76" fill="none" xmlns="http://www.w3.org/2000/svg">
<path d="M67.6065 14.6656C66.2668 13.5398 64.8068 12.5655 63.2531 11.7604V5.19353C63.251 3.81644 62.703 2.49636 61.729 1.52278C60.7551 0.549192 59.4349 0.00157051 58.0578 0L17.9428 0C16.5654 0.00157148 15.2449 0.549438 14.2709 1.52341C13.297 2.49738 12.7491 3.81791 12.7475 5.19531V11.7628C11.1939 12.5671 9.73395 13.5407 8.39414 14.6656C8.28637 14.7632 8.2003 14.8823 8.14149 15.0153C8.08268 15.1483 8.05244 15.2921 8.05274 15.4375V61.7464C8.05289 62.022 8.16242 62.2862 8.35724 62.481C8.55207 62.6758 8.81627 62.7853 9.0918 62.7855H12.8532V64.9414C12.8545 66.004 13.2771 67.0226 14.0285 67.774C14.7798 68.5253 15.7985 68.948 16.861 68.9492H19.0745V74.9592C19.0745 75.2347 19.184 75.499 19.3789 75.6939C19.5737 75.8887 19.838 75.9982 20.1136 75.9982H27.8323C28.1079 75.9982 28.3722 75.8887 28.5671 75.6939C28.7619 75.499 28.8714 75.2347 28.8714 74.9592V68.9492H47.1292V74.9592C47.1292 75.2347 47.2387 75.499 47.4335 75.6939C47.6284 75.8887 47.8927 75.9982 48.1683 75.9982H55.887C56.1626 75.9982 56.4269 75.8887 56.6217 75.6939C56.8166 75.499 56.9261 75.2347 56.9261 74.9592V68.9492H59.1378C60.2004 68.948 61.219 68.5253 61.9704 67.774C62.7217 67.0226 63.1444 66.004 63.1456 64.9414V62.7855H66.907C67.1826 62.7855 67.4469 62.676 67.6417 62.4812C67.8366 62.2863 67.9461 62.022 67.9461 61.7464V15.4375C67.9465 15.2923 67.9165 15.1485 67.858 15.0156C67.7995 14.8827 67.7138 14.7634 67.6065 14.6656ZM14.8256 5.19353C14.8266 4.36709 15.1553 3.57477 15.7397 2.99039C16.3241 2.40601 17.1164 2.07729 17.9428 2.07634H58.0578C58.8842 2.07729 59.6765 2.40601 60.2609 2.99039C60.8453 3.57477 61.174 4.36709 61.175 5.19353V10.7154C56.3656 8.15753 45.4293 5.83181 38.0003 6.08416C30.5695 5.83241 19.638 8.15813 14.8256 10.7154V5.19353ZM26.7933 73.9219H21.1526V68.951H26.7933V73.9219ZM54.848 73.9219H49.2073V68.951H54.848V73.9219ZM61.0687 64.9432C61.068 65.4548 60.8645 65.9452 60.5028 66.307C60.141 66.6687 59.6506 66.8722 59.139 66.8729H16.8628C16.3512 66.8722 15.8607 66.6687 15.499 66.307C15.1372 65.9452 14.9337 65.4548 14.9331 64.9432V62.7873H61.0705L61.0687 64.9432ZM57.0561 60.7092H18.9445V51.2852C18.9453 50.6161 19.2114 49.9747 19.6845 49.5017C20.1575 49.0286 20.7989 48.7625 21.4679 48.7617H54.5327C55.2017 48.7625 55.8431 49.0286 56.3161 49.5017C56.7892 49.9747 57.0553 50.6161 57.0561 51.2852V60.7092ZM65.8691 60.7092H59.1342V51.2852C59.1328 50.0652 58.6476 48.8956 57.7849 48.0329C56.9223 47.1703 55.7527 46.685 54.5327 46.6836H21.4679C20.2479 46.685 19.0783 47.1703 18.2157 48.0329C17.353 48.8956 16.8678 50.0652 16.8664 51.2852V60.7074H10.1309V15.9285C11.6633 14.728 18.3478 10.0278 30.6045 8.58622C35.5197 8.02542 40.4827 8.02542 45.3978 8.58622C57.657 10.0278 64.3385 14.7298 65.8691 15.9273V60.7092Z" fill="#ED1B23"/>
<path d="M40.3579 14.3342C40.2527 14.2025 40.117 14.0984 39.9625 14.0309C39.8081 13.9633 39.6395 13.9344 39.4713 13.9466C39.3032 13.9587 39.1405 14.0116 38.9974 14.1006C38.8543 14.1897 38.7349 14.3122 38.6497 14.4577L32.9093 24.2587L30.6418 21.8623C30.5301 21.7444 30.3922 21.6543 30.2393 21.5992C30.0864 21.5441 29.9228 21.5257 29.7615 21.5453C29.6002 21.5649 29.4457 21.6221 29.3105 21.7122C29.1753 21.8023 29.0631 21.9229 28.9829 22.0642L27.3584 24.9285C26.3197 26.7564 25.7739 28.823 25.7744 30.9254C25.7749 33.0279 26.3218 35.0941 27.3614 36.9216C28.401 38.749 29.8976 40.2749 31.7046 41.3498C33.5115 42.4246 35.5668 43.0114 37.6688 43.0527H37.8333H37.8387H38.0275H38.0601C38.319 43.0527 38.5741 43.0473 38.8255 43.0367C41.0239 42.9615 43.1564 42.2668 44.9773 41.0326C46.7982 39.7984 48.2334 38.0749 49.1175 36.0607C50.0651 34.0069 50.4216 31.7297 50.1471 29.4846C49.8727 27.2395 48.9781 25.1153 47.5637 23.3503L40.3579 14.3342ZM41.8043 38.6037C41.506 39.2866 41.0207 39.8712 40.4045 40.2902C39.7882 40.7091 39.0661 40.9454 38.3214 40.9716C38.2282 40.9758 38.1326 40.9775 38.0364 40.9775H37.8672C37.1504 40.962 36.4499 40.7606 35.8343 40.3931C35.2187 40.0255 34.709 39.5044 34.3553 38.8808C34.0015 38.2572 33.8157 37.5524 33.8161 36.8354C33.8165 36.1185 34.0031 35.4139 34.3575 34.7907L34.4234 34.6719L34.9608 35.2401C35.0714 35.3575 35.208 35.4474 35.3595 35.5028C35.511 35.5581 35.6734 35.5774 35.8336 35.5591C35.9939 35.5408 36.1477 35.4853 36.2828 35.3972C36.4179 35.309 36.5306 35.1906 36.612 35.0513L38.8546 31.2216L41.2753 34.2498C41.7596 34.8545 42.0658 35.5823 42.1592 36.3515C42.2527 37.1206 42.1298 37.9006 41.8043 38.6037ZM47.2258 35.1998C46.474 36.8837 45.2656 38.3235 43.7376 39.356C44.1956 38.3138 44.3596 37.1662 44.2117 36.0374C44.0638 34.9087 43.6097 33.842 42.8986 32.953L39.5344 28.7433C39.4292 28.6116 39.2934 28.5075 39.139 28.44C38.9845 28.3725 38.816 28.3435 38.6478 28.3557C38.4797 28.3678 38.317 28.4207 38.1739 28.5098C38.0307 28.5988 37.9114 28.7214 37.8262 28.8668L35.5183 32.8063L34.9673 32.2233C34.8551 32.1059 34.7172 32.0161 34.5644 31.9611C34.4115 31.906 34.2481 31.8873 34.0868 31.9062C33.9254 31.9257 33.771 31.9829 33.6358 32.073C33.5006 32.1631 33.3884 32.2838 33.3083 32.4252L32.5495 33.7629C32.0765 34.5881 31.8009 35.5117 31.7442 36.4612C31.6876 37.4107 31.8514 38.3604 32.223 39.2361C30.1473 37.8028 28.6827 35.6451 28.1171 33.1869C27.5515 30.7286 27.9257 28.1478 29.1663 25.9515L30.0973 24.3092L32.3536 26.6913C32.4645 26.8085 32.6011 26.8983 32.7527 26.9536C32.9042 27.0088 33.0666 27.028 33.2269 27.0096C33.3871 26.9912 33.5409 26.9358 33.6761 26.8477C33.8112 26.7595 33.924 26.6412 34.0054 26.5019L39.6805 16.8107L45.9428 24.6482C47.1155 26.1143 47.8567 27.878 48.0833 29.7417C48.3099 31.6054 48.013 33.4953 47.2258 35.1998Z" fill="#ED1B23"/>
<path d="M52.6028 51.3208H23.3975C23.261 51.3207 23.1258 51.3475 22.9997 51.3997C22.8736 51.4519 22.7591 51.5285 22.6626 51.625C22.5661 51.7215 22.4895 51.836 22.4373 51.9621C22.3851 52.0882 22.3583 52.2234 22.3584 52.3599V57.1099C22.3584 57.3854 22.4679 57.6497 22.6627 57.8446C22.8576 58.0395 23.1219 58.1489 23.3975 58.1489H52.6028C52.8784 58.1488 53.1426 58.0392 53.3374 57.8444C53.5322 57.6496 53.6417 57.3854 53.6419 57.1099V52.3599C53.6419 52.0843 53.5324 51.82 53.3376 51.6251C53.1427 51.4303 52.8784 51.3208 52.6028 51.3208ZM51.5638 56.0708H24.4365V53.3989H51.5638V56.0708Z" fill="#ED1B23"/>
</svg>
