<svg width="78" height="78" viewBox="0 0 78 78" fill="none" xmlns="http://www.w3.org/2000/svg">
<path fill-rule="evenodd" clip-rule="evenodd" d="M66.3485 70.7802C65.8458 70.7802 65.4346 70.369 65.4346 69.8663V35.093C65.4346 33.8593 67.2623 33.8593 67.2623 35.093V69.8663C67.2623 70.369 66.8511 70.7802 66.3485 70.7802Z" fill="#ED1B23"/>
<path fill-rule="evenodd" clip-rule="evenodd" d="M11.6522 70.7802C11.1495 70.7802 10.7383 70.369 10.7383 69.8663V35.093C10.7383 33.8593 12.566 33.8593 12.566 35.093V69.8663C12.566 70.369 12.1548 70.7802 11.6522 70.7802Z" fill="#ED1B23"/>
<path fill-rule="evenodd" clip-rule="evenodd" d="M22.3903 62.327C21.6135 62.327 21.2023 61.4131 21.7049 60.8191C24.3095 57.8947 24.7664 53.6451 22.8016 50.2637C20.4255 46.1969 20.9738 41.0792 24.081 37.6064C24.9035 36.6925 26.2743 37.9263 25.4518 38.7945C22.8472 41.7189 22.436 45.9685 24.4009 49.3498C28.0107 55.6099 23.8982 62.327 22.3903 62.327Z" fill="#ED1B23"/>
<path fill-rule="evenodd" clip-rule="evenodd" d="M37.7898 62.327C37.013 62.327 36.6018 61.4131 37.1044 60.8191C39.709 57.8947 40.1659 53.6451 38.2011 50.2637C35.8707 46.1969 36.3733 41.0792 39.4805 37.6064C40.303 36.6925 41.6738 37.9263 40.8513 38.7945C38.2468 41.7189 37.8355 45.9685 39.8004 49.3498C43.4102 55.6099 39.2521 62.327 37.7898 62.327Z" fill="#ED1B23"/>
<path fill-rule="evenodd" clip-rule="evenodd" d="M53.1883 62.327C52.4572 62.327 52.0002 61.4131 52.5029 60.8191C55.1074 57.8947 55.5644 53.6451 53.5995 50.2637C51.2691 46.1969 51.7718 41.0792 54.879 37.6064C55.7015 36.6925 57.0723 37.9263 56.2498 38.7945C53.6452 41.7189 53.234 45.9685 55.1988 49.3498C58.8087 55.6099 54.6505 62.327 53.1883 62.327Z" fill="#ED1B23"/>
<path fill-rule="evenodd" clip-rule="evenodd" d="M76.1269 36.0071H66.3484C66.1199 36.0071 65.9371 35.9157 65.7544 35.7786L38.9776 12.3832L12.2465 35.7786C12.0637 35.9157 11.8809 35.9614 11.6524 35.9614H1.87387C1.05138 35.9614 0.640131 34.9561 1.23416 34.3621L38.3835 1.09674C38.7491 0.822572 39.2517 0.822572 39.6173 1.09674L76.721 34.3621C77.3607 34.9561 76.9494 36.0071 76.1269 36.0071ZM66.7139 34.1793H73.7508L38.9776 3.06159L4.24997 34.1793H11.2869L38.3835 10.5097C38.7491 10.1899 39.2517 10.1899 39.5716 10.5097L66.7139 34.1793Z" fill="#ED1B23"/>
<path fill-rule="evenodd" clip-rule="evenodd" d="M61.3676 22.8015C61.1392 22.8015 60.9564 22.7101 60.7736 22.5273L53.0513 15.6275C52.8685 15.4447 52.7314 15.2163 52.7314 14.9421V6.67145C52.7314 6.16882 53.1884 5.75757 53.6453 5.75757H61.3676C61.8703 5.75757 62.2815 6.16882 62.2815 6.67145V21.8876C62.2815 22.3903 61.8703 22.8015 61.3676 22.8015ZM54.6049 14.5309L60.4538 19.8314V7.58534H54.6049V14.5309Z" fill="#ED1B23"/>
<path fill-rule="evenodd" clip-rule="evenodd" d="M64.109 7.58524H50.949C50.4464 7.58524 50.0352 7.17399 50.0352 6.67135V0.913884C50.0352 0.411248 50.4464 0 50.949 0H64.109C64.5659 0 64.9772 0.411248 64.9772 0.913884V6.67135C64.9772 7.17399 64.6116 7.58524 64.109 7.58524ZM51.8629 5.75747H63.1951V1.82777H51.8629V5.75747Z" fill="#ED1B23"/>
<path fill-rule="evenodd" clip-rule="evenodd" d="M6.76349 70.7804C6.26086 70.7804 5.84961 70.3691 5.84961 69.8665V35.0932C5.84961 33.8595 7.67738 33.8595 7.67738 35.0932V69.8665C7.67738 70.3691 7.26613 70.7804 6.76349 70.7804ZM71.238 70.7347C70.7354 70.7347 70.3241 70.3235 70.3241 69.8208V35.0475C70.3241 33.8595 72.1519 33.8595 72.1519 35.0475V69.8208C72.1519 70.3235 71.7406 70.7347 71.238 70.7347Z" fill="#ED1B23"/>
<path fill-rule="evenodd" clip-rule="evenodd" d="M73.6595 78.0001H4.2957C3.19904 78.0001 2.28516 77.0862 2.28516 75.9438V70.9632C2.28516 69.8665 3.19904 68.9526 4.2957 68.9526H73.6595C74.8019 68.9526 75.7157 69.8665 75.7157 70.9632V75.9438C75.7157 77.0862 74.8019 78.0001 73.6595 78.0001ZM4.2957 70.7804C4.20431 70.7804 4.11292 70.8718 4.11292 70.9632V75.9438C4.11292 76.0352 4.20431 76.1723 4.2957 76.1723H73.6595C73.7966 76.1723 73.888 76.0352 73.888 75.9438V70.9632C73.888 70.8718 73.7966 70.7804 73.6595 70.7804H4.2957Z" fill="#ED1B23"/>
</svg>
