<svg width="73" height="70" viewBox="0 0 73 70" fill="none" xmlns="http://www.w3.org/2000/svg">
<path d="M65.4044 23.8076L58.1587 31.0534C56.5344 32.6776 53.901 32.6776 52.2768 31.0534C50.6526 29.4291 50.6526 26.7957 52.2768 25.1715L59.5226 17.9258C56.4141 15.134 51.6287 15.2323 48.6391 18.2219L43.3666 23.4944C40.2747 26.5863 40.2747 31.5992 43.3666 34.6911L43.8692 35.1938L17.0201 58.7914C14.6116 60.8018 14.4476 64.4458 16.6661 66.6641C18.8844 68.8824 22.5284 68.7186 24.5388 66.3101L48.1364 39.461L48.6391 39.9636C51.731 43.0555 56.7439 43.0555 59.8358 39.9636L65.1083 34.6911C68.0979 31.7015 68.1963 26.9161 65.4044 23.8076Z" stroke="#ED1B23" stroke-width="2.5" stroke-miterlimit="10" stroke-linecap="round" stroke-linejoin="round"/>
<path d="M51.1965 46.4597C51.1965 48.6227 52.9498 50.3759 55.1127 50.3759H57.7575V64.5621H50.1255C45.2281 64.5621 40.9576 61.8777 38.7051 57.9" stroke="#ED1B23" stroke-width="2.5" stroke-miterlimit="10" stroke-linecap="round" stroke-linejoin="round"/>
<path d="M58.29 52.5039H71.4121" stroke="#ED1B23" stroke-width="2.5" stroke-miterlimit="10" stroke-linecap="round" stroke-linejoin="round"/>
<path d="M58.29 62.6113H71.4121" stroke="#ED1B23" stroke-width="2.5" stroke-miterlimit="10" stroke-linecap="round" stroke-linejoin="round"/>
<path d="M35.2375 35.1479V19.5363C35.2375 17.3734 33.4842 15.6201 31.3213 15.6201" stroke="#ED1B23" stroke-width="2.5" stroke-miterlimit="10" stroke-linecap="round" stroke-linejoin="round"/>
<path d="M31.1592 1.43384H36.3086C42.5062 1.43384 47.6997 5.73257 49.0702 11.511" stroke="#ED1B23" stroke-width="2.5" stroke-miterlimit="10" stroke-linecap="round" stroke-linejoin="round"/>
<path d="M19.4706 15.62C17.3076 15.62 15.5543 17.3733 15.5543 19.5362V25.1956H1.36816V14.5491C1.36816 7.30568 7.24 1.43384 14.4834 1.43384H19.6328" stroke="#ED1B23" stroke-width="2.5" stroke-miterlimit="10" stroke-linecap="round" stroke-linejoin="round"/>
<path d="M20.6963 3.38452H31.1586" stroke="#ED1B23" stroke-width="2.5" stroke-miterlimit="10" stroke-linecap="round" stroke-linejoin="round"/>
<path d="M20.6963 13.4919H31.1586" stroke="#ED1B23" stroke-width="2.5" stroke-miterlimit="10" stroke-linecap="round" stroke-linejoin="round"/>
<path d="M14.0468 43.933C14.0468 46.6262 11.8635 48.8094 9.17035 48.8094C6.47717 48.8094 4.29395 46.6262 4.29395 43.933C4.29395 41.2398 9.02262 31.3723 9.02262 31.3723C9.02262 31.3723 14.0468 41.2398 14.0468 43.933Z" stroke="#ED1B23" stroke-width="2.5" stroke-miterlimit="10" stroke-linecap="round" stroke-linejoin="round"/>
<path d="M19.6328 1.43384V15.62" stroke="#ED1B23" stroke-width="2.5" stroke-miterlimit="10" stroke-linecap="round" stroke-linejoin="round"/>
<path d="M31.1592 1.43384V15.62" stroke="#ED1B23" stroke-width="2.5" stroke-miterlimit="10" stroke-linecap="round" stroke-linejoin="round"/>
</svg>
