<svg width="83" height="83" viewBox="0 0 83 83" fill="none" xmlns="http://www.w3.org/2000/svg">
<path d="M75.6197 13.4332V10.7772C75.6197 10.0253 75.321 9.30429 74.7894 8.77267C74.2577 8.24105 73.5367 7.94238 72.7849 7.94238H58.3812C57.6338 7.94912 56.9193 8.25075 56.3932 8.78164C55.8671 9.31254 55.5719 10.0297 55.572 10.7772V13.4076H26.9178V10.8538C26.9195 10.4765 26.8468 10.1025 26.704 9.75331C26.5612 9.40409 26.3509 9.08642 26.0853 8.81845C25.8197 8.55047 25.5039 8.33743 25.156 8.1915C24.8081 8.04557 24.4348 7.96959 24.0575 7.96792H9.74319C8.98443 7.97125 8.25751 8.27327 7.71979 8.8086C7.18207 9.34393 6.87682 10.0695 6.87011 10.8282V13.4842C5.74541 13.655 4.71898 14.2227 3.97652 15.0846C3.23407 15.9465 2.82462 17.0457 2.82227 18.1833V70.2307C2.82226 71.4951 3.32366 72.7079 4.21652 73.6031C5.10937 74.4984 6.32081 75.003 7.58519 75.0064H75.4153C76.6797 75.003 77.8912 74.4984 78.784 73.6031C79.6769 72.7079 80.1783 71.4951 80.1783 70.2307V18.1833C80.1793 16.956 79.7052 15.7759 78.8554 14.8904C78.0056 14.0049 76.846 13.4826 75.6197 13.4332ZM58.1258 10.7772C58.1241 10.7419 58.1293 10.7067 58.1412 10.6735C58.1532 10.6403 58.1715 10.6098 58.1952 10.5837C58.2189 10.5576 58.2476 10.5365 58.2795 10.5214C58.3114 10.5064 58.346 10.4979 58.3812 10.4962H72.7849C72.8212 10.4962 72.8571 10.5035 72.8905 10.5178C72.9239 10.5321 72.9541 10.553 72.9792 10.5792C73.0042 10.6055 73.0237 10.6366 73.0364 10.6706C73.0491 10.7046 73.0548 10.7409 73.053 10.7772V13.4076H58.1258V10.7772ZM9.74319 10.4962H24.0575C24.0994 10.4979 24.1406 10.5078 24.1787 10.5253C24.2168 10.5429 24.2511 10.5679 24.2796 10.5987C24.308 10.6295 24.3301 10.6657 24.3446 10.7051C24.3591 10.7444 24.3657 10.7863 24.364 10.8282V13.3821H9.42396V10.8282C9.42389 10.7423 9.45711 10.6598 9.51664 10.5979C9.57617 10.536 9.65737 10.4995 9.74319 10.4962ZM75.4153 72.5036H7.58519C7.28964 72.5037 6.99707 72.4446 6.7248 72.3296C6.45253 72.2146 6.20611 72.0461 6.00012 71.8342C5.79413 71.6222 5.63277 71.3711 5.52558 71.0957C5.4184 70.8203 5.36757 70.5261 5.37611 70.2307V25.449H31.7318C32.0705 25.449 32.3953 25.3145 32.6347 25.075C32.8742 24.8355 33.0087 24.5107 33.0087 24.1721C33.0087 23.8334 32.8742 23.5086 32.6347 23.2692C32.3953 23.0297 32.0705 22.8952 31.7318 22.8952H5.37611V18.1833C5.37443 17.8921 5.43033 17.6035 5.54059 17.334C5.65085 17.0645 5.8133 16.8195 6.0186 16.613C6.2239 16.4065 6.468 16.2426 6.73685 16.1308C7.0057 16.019 7.29401 15.9615 7.58519 15.9615H75.4153C75.7065 15.9615 75.9948 16.019 76.2637 16.1308C76.5325 16.2426 76.7766 16.4065 76.9819 16.613C77.1872 16.8195 77.3497 17.0645 77.4599 17.334C77.5702 17.6035 77.6261 17.8921 77.6244 18.1833V63.3225H50.2472C49.9085 63.3225 49.5837 63.4571 49.3443 63.6965C49.1048 63.936 48.9703 64.2608 48.9703 64.5995C48.9703 64.9381 49.1048 65.2629 49.3443 65.5024C49.5837 65.7419 49.9085 65.8764 50.2472 65.8764H77.6244V70.2307C77.633 70.5261 77.5821 70.8203 77.4749 71.0957C77.3678 71.3711 77.2064 71.6222 77.0004 71.8342C76.7944 72.0461 76.548 72.2146 76.2757 72.3296C76.0035 72.4446 75.7109 72.5037 75.4153 72.5036Z" fill="#ED1B23"/>
<path d="M15.6291 36.9031H8.27399C7.93533 36.9031 7.61054 37.0376 7.37107 37.2771C7.1316 37.5165 6.99707 37.8413 6.99707 38.18C6.99707 38.5187 7.1316 38.8435 7.37107 39.0829C7.61054 39.3224 7.93533 39.4569 8.27399 39.4569H15.6291C15.9677 39.4569 16.2925 39.3224 16.532 39.0829C16.7715 38.8435 16.906 38.5187 16.906 38.18C16.906 37.8413 16.7715 37.5165 16.532 37.2771C16.2925 37.0376 15.9677 36.9031 15.6291 36.9031Z" fill="#ED1B23"/>
<path d="M65.8892 39.5846H69.1709V42.8663C69.1709 43.205 69.3055 43.5298 69.5449 43.7692C69.7844 44.0087 70.1092 44.1432 70.4478 44.1432C70.7865 44.1432 71.1113 44.0087 71.3508 43.7692C71.5902 43.5298 71.7248 43.205 71.7248 42.8663V39.5846H75.0192C75.3579 39.5846 75.6827 39.4501 75.9222 39.2106C76.1616 38.9711 76.2962 38.6463 76.2962 38.3077C76.2962 37.969 76.1616 37.6442 75.9222 37.4048C75.6827 37.1653 75.3579 37.0308 75.0192 37.0308H71.7248V33.7108C71.7248 33.3721 71.5902 33.0473 71.3508 32.8078C71.1113 32.5684 70.7865 32.4338 70.4478 32.4338C70.1092 32.4338 69.7844 32.5684 69.5449 32.8078C69.3055 33.0473 69.1709 33.3721 69.1709 33.7108V37.0308H65.8892C65.5506 37.0308 65.2258 37.1653 64.9863 37.4048C64.7468 37.6442 64.6123 37.969 64.6123 38.3077C64.6123 38.6463 64.7468 38.9711 64.9863 39.2106C65.2258 39.4501 65.5506 39.5846 65.8892 39.5846Z" fill="#ED1B23"/>
<path d="M61.2027 44.2327C61.2027 40.3358 60.0472 36.5265 57.8822 33.2864C55.7172 30.0462 52.64 27.5209 49.0398 26.0296C45.4395 24.5383 41.4779 24.1481 37.656 24.9084C33.834 25.6686 30.3232 27.5451 27.5677 30.3006C24.8122 33.0561 22.9357 36.5669 22.1755 40.3889C21.4152 44.2109 21.8054 48.1725 23.2967 51.7727C24.7879 55.3729 27.3133 58.4501 30.5534 60.6151C33.7936 62.7801 37.6029 63.9356 41.4998 63.9356C46.7233 63.9289 51.7309 61.8509 55.4244 58.1573C59.118 54.4638 61.196 49.4562 61.2027 44.2327ZM41.4998 61.3818C38.108 61.3818 34.7924 60.376 31.9723 58.4917C29.1521 56.6073 26.9541 53.929 25.6561 50.7954C24.3582 47.6618 24.0185 44.2137 24.6802 40.8871C25.3419 37.5605 26.9752 34.5048 29.3736 32.1065C31.7719 29.7081 34.8276 28.0749 38.1542 27.4132C41.4808 26.7515 44.9289 27.0911 48.0625 28.389C51.1961 29.687 53.8744 31.885 55.7587 34.7052C57.6431 37.5254 58.6489 40.8409 58.6489 44.2327C58.6421 48.7789 56.8332 53.1369 53.6186 56.3515C50.404 59.5661 46.0459 61.375 41.4998 61.3818Z" fill="#ED1B23"/>
<path d="M50.2977 40.1082L44.7942 39.8784L49.3272 32.5744C49.4393 32.3802 49.4983 32.16 49.4983 31.9359C49.4983 31.7117 49.4393 31.4915 49.3272 31.2974C49.2208 31.1075 49.0675 30.948 48.882 30.834C48.6965 30.7201 48.4849 30.6554 48.2674 30.6462L39.8269 30.544C39.5951 30.5411 39.3668 30.6014 39.1666 30.7183C38.9663 30.8353 38.8018 31.0046 38.6905 31.208L31.6291 44.2582C31.517 44.4523 31.458 44.6725 31.458 44.8967C31.458 45.1208 31.517 45.341 31.6291 45.5351C31.7399 45.7221 31.8965 45.8776 32.0842 45.9871C32.2719 46.0966 32.4844 46.1564 32.7017 46.1608L37.8094 46.2374L32.8294 56.1208C32.7009 56.3852 32.6675 56.6859 32.735 56.972C32.8025 57.2582 32.9666 57.5123 33.1997 57.6914C33.4207 57.8572 33.6896 57.9468 33.9659 57.9468C34.2884 57.9457 34.5987 57.8225 34.8342 57.602L51.0766 42.3173C51.2612 42.1448 51.3904 41.9214 51.448 41.6754C51.5055 41.4294 51.4888 41.1718 51.4 40.9353C51.3111 40.6988 51.1541 40.494 50.9488 40.3468C50.7435 40.1995 50.4991 40.1165 50.2466 40.1082H50.2977ZM38.4223 50.7577L41.0528 45.5479C41.1498 45.3554 41.1966 45.1415 41.1887 44.9261C41.1808 44.7107 41.1185 44.5008 41.0076 44.316C40.8967 44.1311 40.7408 43.9774 40.5544 43.869C40.3681 43.7607 40.1574 43.7013 39.9419 43.6964L34.8342 43.6197L40.5292 33.0724L45.9689 33.2L41.4742 40.4402C41.3621 40.6343 41.3031 40.8545 41.3031 41.0787C41.3031 41.3028 41.3621 41.523 41.4742 41.7171C41.5785 41.9136 41.7324 42.0794 41.9205 42.1981C42.1086 42.3168 42.3245 42.3843 42.5468 42.3939L47.2203 42.5854L38.4223 50.7577Z" fill="#ED1B23"/>
</svg>
