<svg width="100" height="100" viewBox="0 0 100 100" fill="none" xmlns="http://www.w3.org/2000/svg">
<path d="M19.4375 40.9375C19.25 40.0938 19.8125 39.25 20.625 39.0625C21.4687 38.9063 22.3125 39.4375 22.5 40.2813C22.6875 41.125 22.125 41.9375 21.2812 42.125C21.1875 42.1563 21.0938 42.1563 20.9688 42.1563C20.25 42.1563 19.5937 41.6563 19.4375 40.9375ZM78.7188 42.0625C77.875 41.9063 77.3438 41.0625 77.5312 40.2188C77.6875 39.375 78.5312 38.8438 79.375 39C80.2188 39.1875 80.75 40.0313 80.5625 40.875C80.4063 41.5938 79.7813 42.0938 79.0313 42.0938C78.9375 42.0938 78.8438 42.0938 78.7188 42.0625ZM18.75 34.4375C18.75 33.5625 19.4375 32.875 20.3125 32.875C21.1875 32.875 21.875 33.5625 21.875 34.4375C21.875 35.2813 21.1875 36 20.3125 36C19.4687 36 18.75 35.3125 18.75 34.4375ZM78.125 34.375C78.125 34.3438 78.125 34.3125 78.125 34.25C78.125 33.4063 78.8125 32.6875 79.6875 32.6875C80.5312 32.6875 81.25 33.375 81.25 34.25V34.3125V34.375C81.25 35.25 80.5625 35.9375 79.6875 35.9375C78.8125 35.9375 78.125 35.25 78.125 34.375ZM20.625 29.7813C19.7812 29.625 19.25 28.7813 19.4063 27.9375C19.5938 27.0938 20.4063 26.5625 21.25 26.75C22.0938 26.9063 22.6563 27.75 22.4688 28.5938C22.3125 29.3125 21.6562 29.8125 20.9375 29.8125C20.8437 29.8125 20.7187 29.8125 20.625 29.7813ZM77.5 28.4063C77.3125 27.5625 77.8438 26.75 78.6875 26.5625C79.5312 26.375 80.375 26.9063 80.5625 27.75C80.7188 28.5938 80.1875 29.4375 79.3438 29.625C79.25 29.625 79.125 29.6563 79.0313 29.6563C78.2813 29.6563 77.6562 29.1563 77.5 28.4063ZM22.2188 23.7813C21.4375 23.4375 21.0625 22.5 21.4062 21.7188C21.7812 20.9375 22.6875 20.5938 23.4688 20.9375C24.25 21.2813 24.625 22.1875 24.2812 23C24 23.5625 23.4375 23.9375 22.8438 23.9375C22.625 23.9375 22.4063 23.875 22.2188 23.7813ZM75.6562 22.8438C75.3125 22.0625 75.6562 21.125 76.4375 20.7813C77.2187 20.4063 78.1563 20.75 78.5 21.5625C78.875 22.3438 78.5 23.25 77.7188 23.625C77.5 23.7188 77.2812 23.75 77.0938 23.75C76.5 23.75 75.9062 23.4063 75.6562 22.8438ZM25.0313 18.25C24.3125 17.75 24.1563 16.75 24.6875 16.0625C25.1875 15.375 26.1563 15.2188 26.8438 15.7188C27.5625 16.2188 27.7187 17.1875 27.1875 17.9063C26.9062 18.3125 26.4063 18.5313 25.9375 18.5313C25.625 18.5313 25.3125 18.4375 25.0313 18.25ZM72.6875 17.75C72.1875 17.0625 72.3438 16.0938 73.0313 15.5625C73.7188 15.0625 74.7188 15.2188 75.2188 15.9063C75.7188 16.5938 75.5625 17.5938 74.875 18.0938C74.5937 18.3125 74.2812 18.4063 73.9688 18.4063C73.4688 18.4063 73 18.1875 72.6875 17.75ZM28.9062 13.4063C28.3438 12.7813 28.375 11.7813 29.0312 11.2188C29.6562 10.625 30.6562 10.6875 31.25 11.3125C31.8125 11.9375 31.7812 12.9375 31.125 13.5313C30.8125 13.7813 30.4375 13.9375 30.0625 13.9375C29.6562 13.9375 29.2188 13.75 28.9062 13.4063ZM68.75 13.4063C68.0938 12.8438 68.0312 11.8438 68.625 11.1875C69.1875 10.5625 70.1875 10.5 70.8438 11.0938C71.4688 11.6563 71.5313 12.625 70.9375 13.2813C70.6563 13.625 70.2188 13.8125 69.7812 13.8125C69.4062 13.8125 69.0312 13.6875 68.75 13.4063ZM33.7188 9.50003C33.3125 8.75003 33.5625 7.78128 34.3125 7.34378C35.0312 6.90628 36 7.15628 36.4375 7.90628C36.875 8.65628 36.625 9.62503 35.875 10.0625C35.625 10.1875 35.3437 10.25 35.0937 10.25C34.5312 10.25 34.0312 10 33.7188 9.50003ZM63.9687 9.96878C63.2187 9.53128 62.9688 8.59378 63.4063 7.84378C63.8438 7.09378 64.7812 6.81253 65.5312 7.25003C66.2812 7.68753 66.5312 8.62503 66.125 9.37503C65.8125 9.90628 65.2812 10.1563 64.75 10.1563C64.5 10.1563 64.2187 10.0938 63.9687 9.96878ZM39.25 6.65628C39 5.81253 39.4375 4.93753 40.25 4.68753C41.0625 4.40628 41.9688 4.84378 42.2188 5.65628C42.5 6.50003 42.0625 7.37503 41.2187 7.65628C41.0625 7.68753 40.9062 7.71878 40.75 7.71878C40.0938 7.71878 39.4688 7.31253 39.25 6.65628ZM58.5938 7.59378C57.7812 7.31253 57.3438 6.43753 57.5938 5.62503C57.8438 4.81253 58.75 4.34378 59.5625 4.62503C60.375 4.87503 60.8437 5.75003 60.5625 6.59378C60.3437 7.25003 59.75 7.65628 59.0938 7.65628C58.9375 7.65628 58.75 7.62503 58.5938 7.59378ZM45.25 5.03128C45.1562 4.15628 45.7812 3.40628 46.625 3.31253C47.5 3.21878 48.2812 3.84378 48.3438 4.68753C48.4688 5.56253 47.8438 6.31253 46.9688 6.40628C46.9062 6.40628 46.875 6.40628 46.8125 6.40628C46 6.40628 45.3437 5.81253 45.25 5.03128ZM52.8438 6.37503C52 6.31253 51.375 5.53128 51.4687 4.68753C51.5312 3.81253 52.3125 3.18753 53.1562 3.28128C54.0312 3.37503 54.6562 4.12503 54.5625 5.00003C54.5 5.81253 53.8125 6.40628 53 6.40628C52.9687 6.40628 52.9062 6.40628 52.8438 6.37503Z" fill="#ED1B23"/>
<path d="M45.3123 74.9999C44.4498 74.9999 43.7498 74.2999 43.7498 73.4374V71.9905C43.7498 65.4062 39.2029 59.6655 32.6904 58.028C31.8529 57.8187 31.3466 56.9687 31.556 56.1312C31.7654 55.2937 32.6123 54.7812 33.4529 54.9968C41.356 56.9843 46.8748 63.9718 46.8748 71.9905V73.4374C46.8748 74.2999 46.1748 74.9999 45.3123 74.9999Z" fill="#ED1B23"/>
<path d="M27.3813 63.8032C26.9812 63.8032 26.5813 63.65 26.275 63.3469L12.5656 49.6594C12.2719 49.3657 12.1094 48.9688 12.1094 48.5532C12.1094 48.1407 12.275 47.7407 12.5656 47.4469C16.8656 43.1469 22.1625 43.5125 27.0938 48.4469L34.1375 55.4782C34.75 56.0875 34.75 57.0782 34.1406 57.6875C33.5312 58.3 32.5406 58.2969 31.9313 57.6907L24.8844 50.6594C21.6781 47.45 18.6844 46.775 15.9719 48.6469L28.4781 61.1344C29.0875 61.7438 29.0875 62.7344 28.4781 63.3469C28.1812 63.65 27.7812 63.8032 27.3813 63.8032Z" fill="#ED1B23"/>
<path d="M18.75 79.9469V87.5H21.875V81.25H43.75V87.5H46.875V79.9469C46.875 79.0844 46.1094 78.125 45.2469 78.125H20.2469C19.3781 78.125 18.75 79.0875 18.75 79.9469Z" fill="#ED1B23"/>
<path d="M15.625 95.3125C15.625 96.1719 16.325 96.875 17.1875 96.875C18.05 96.875 18.75 96.1719 18.75 95.3125V87.5H43.75V95.3094C43.75 96.1719 44.45 96.8719 45.3125 96.8719C46.175 96.875 46.875 96.1719 46.875 95.3094V86.1969C46.875 85.3344 46.1094 84.375 45.2469 84.375H17.1219C16.2563 84.375 15.625 85.3344 15.625 86.1969V95.3125Z" fill="#ED1B23"/>
<path d="M54.6875 75.0001C53.825 75.0001 53.125 74.3001 53.125 73.4376V71.9907C53.125 63.9719 58.6438 56.9844 66.5469 54.9969C67.3844 54.7876 68.2344 55.2938 68.4438 56.1313C68.6531 56.9688 68.1469 57.8188 67.3094 58.0282C60.7969 59.6657 56.25 65.4063 56.25 71.9907V73.4376C56.25 74.3001 55.55 75.0001 54.6875 75.0001Z" fill="#ED1B23"/>
<path d="M72.6188 63.8031C72.2188 63.8031 71.8188 63.65 71.5125 63.3469C70.9031 62.7344 70.9031 61.7469 71.5125 61.1344L84.0187 48.6469C81.3031 46.775 78.3156 47.45 75.1094 50.6594L68.0625 57.6906C67.4531 58.2969 66.4625 58.3 65.8531 57.6875C65.2438 57.0781 65.2437 56.0875 65.8562 55.4781L72.9031 48.4469C77.8406 43.5125 83.1344 43.15 87.4313 47.4469C87.725 47.7406 87.8875 48.1375 87.8875 48.5531C87.8875 48.9688 87.7219 49.3656 87.4313 49.6594L73.7219 63.3469C73.4188 63.65 73.0188 63.8031 72.6188 63.8031Z" fill="#ED1B23"/>
<path d="M28.125 76.4439C28.125 75.9626 27.9031 75.5095 27.5281 75.2126L16.4031 66.4939C15.4375 65.7251 14.0219 64.0657 13.5656 62.9751L6.25 45.9689L6.20625 31.4657C6.37187 31.172 7.40625 30.5251 8.58437 30.697C10.3844 30.9376 11.2312 32.8657 11.625 34.4345C12.2031 36.7532 12.3375 38.797 12.4656 40.7282C12.5219 41.5876 13.2531 42.1814 14.1219 42.1189C14.9844 42.0626 15.6313 41.2532 15.575 40.3939C15.4469 38.4595 15.3031 36.272 14.6594 33.6814C13.4094 28.6939 10.1312 27.2595 7.45625 27.5939C5.32812 27.8564 3.125 29.2876 3.125 31.2314V46.2907C3.125 46.5032 3.16875 46.7126 3.25313 46.9095L10.6906 64.2001C11.3781 65.8376 13.1469 67.897 14.4656 68.947L25 77.2032V81.2501H28.125V76.4439Z" fill="#ED1B23"/>
<path d="M71.875 76.4439C71.875 75.9627 72.0969 75.5096 72.4719 75.2127L83.5969 66.4939C84.5625 65.7252 85.9781 64.0658 86.4344 62.9752L93.75 45.9689L93.7938 31.4658C93.6281 31.1721 92.5906 30.5252 91.4125 30.6971C89.6125 30.9377 88.7656 32.8627 88.3719 34.4346C87.7937 36.7533 87.6594 38.7971 87.5313 40.7283C87.475 41.5877 86.7437 42.1814 85.875 42.1189C85.0125 42.0627 84.3656 41.2533 84.4219 40.3939C84.55 38.4596 84.6938 36.2721 85.3375 33.6814C86.5844 28.6939 89.8625 27.2596 92.5375 27.5971C94.6719 27.8564 96.875 29.2877 96.875 31.2314V46.2908C96.875 46.5033 96.8312 46.7127 96.7469 46.9096L89.3094 64.2002C88.6219 65.8377 86.8531 67.8971 85.5344 68.9471L75 77.2033V81.2502H71.875V76.4439Z" fill="#ED1B23"/>
<path d="M81.25 79.9469V87.5H78.125V81.25H56.25V87.5H53.125V79.9469C53.125 79.0844 53.8906 78.125 54.7531 78.125H79.7531C80.6219 78.125 81.25 79.0875 81.25 79.9469Z" fill="#ED1B23"/>
<path d="M84.375 95.3125C84.375 96.1719 83.675 96.875 82.8125 96.875C81.95 96.875 81.25 96.1719 81.25 95.3125V87.5H56.25V95.3094C56.25 96.1719 55.55 96.8719 54.6875 96.8719C53.825 96.875 53.125 96.1719 53.125 95.3094V86.1969C53.125 85.3344 53.8906 84.375 54.7531 84.375H82.8781C83.7437 84.375 84.375 85.3344 84.375 86.1969V95.3125Z" fill="#ED1B23"/>
<path d="M45.3123 56.2501C45.1185 56.2501 44.9217 56.2158 44.7342 56.1439C44.031 55.8626 43.6279 55.1251 43.7779 54.3845L46.531 40.6251H39.0623C38.4935 40.6251 37.9717 40.3158 37.6935 39.822C37.4185 39.3251 37.4342 38.7158 37.7373 38.2345L53.3623 13.2345C53.7623 12.5939 54.5685 12.3376 55.2623 12.6126C55.9654 12.8908 56.3654 13.6283 56.2185 14.372L53.0935 29.997C52.9248 30.8439 52.1123 31.4001 51.256 31.222C50.4092 31.0533 49.8623 30.2345 50.0279 29.3845L51.4748 22.1501L41.881 37.5001H48.4373C48.9029 37.5001 49.3467 37.7095 49.6467 38.0751C49.9435 38.4345 50.0623 38.9158 49.9717 39.372L48.5248 46.6033L59.6154 28.8595C60.0717 28.1283 61.0373 27.9033 61.7654 28.3658C62.4967 28.822 62.7217 29.7845 62.2623 30.5158L46.6373 55.5158C46.3467 55.9876 45.8373 56.2501 45.3123 56.2501Z" fill="#ED1B23"/>
</svg>
